<?xml version="1.0" encoding="iso-8859-1"?>
<!-- Generator: Adobe Illustrator 19.0.0, SVG Export Plug-In . SVG Version: 6.00 Build 0)  -->
<svg version="1.1" id="Capa_1" xmlns="http://www.w3.org/2000/svg" xmlns:xlink="http://www.w3.org/1999/xlink" x="0px" y="0px"
	 viewBox="0 0 496 496" style="enable-background:new 0 0 496 496;" xml:space="preserve">
<g>
	<g>
		<path d="M448,480V320h-16V200h-0.248c9.8-7.296,16.248-18.872,16.248-32v-33.888L396.944,32H384V0H112v32H99.056L48,134.112V168
			c0,13.128,6.448,24.704,16.248,32H64v120H48v160H32v16h432v-16H448z M432,168c0,13.232-10.768,24-24,24s-24-10.768-24-24v-24h48
			V168z M416,207.192V320h-16V207.136c2.592,0.528,5.256,0.864,8,0.864C410.736,208,413.416,207.72,416,207.192z M111.864,200
			c3.072-2.296,5.84-4.96,8.136-8.024c7.304,9.72,18.928,16.024,32,16.024s24.696-6.304,32-16.024
			c7.304,9.72,18.928,16.024,32,16.024s24.696-6.304,32-16.024c7.304,9.72,18.928,16.024,32,16.024c13.072,0,24.696-6.304,32-16.024
			c7.304,9.72,18.928,16.024,32,16.024c13.072,0,24.696-6.304,32-16.024c2.296,3.064,5.064,5.728,8.136,8.024H384v120H112V200
			H111.864z M176.08,144L176,168c0,13.232-10.768,24-24,24s-24-10.768-24-24v-24H176.08z M131.096,128l26.664-80h32.8l-13.336,80
			H131.096z M240,144v24c0,13.232-10.768,24-24,24s-24-10.768-24-24v-24H240z M193.44,128l13.336-80H240v80H193.44z M304,144v24
			c0,13.232-10.768,24-24,24s-24-10.768-24-24v-24H304z M256,128V48h33.224l13.336,80H256z M318.68,128l-13.248-80h32.808l26.664,80
			H318.68z M368,144v24c0,13.232-10.768,24-24,24s-24-10.768-24-24v-24H368z M387.056,48l40,80h-45.288l-26.672-80H387.056z M128,16
			h240v16H128V16z M108.944,48h31.96l-26.672,80H68.944L108.944,48z M64,168v-24h48v24c0,13.232-10.768,24-24,24S64,181.232,64,168z
			 M96,207.136V320H80V207.192c2.584,0.528,5.264,0.808,8,0.808C90.744,208,93.408,207.664,96,207.136z M432,480h-16V352h-48v16h32
			v112H96V368h32v-16H80v128H64V336h368V480z"/>
	</g>
</g>
<g>
	<g>
		<rect x="144" y="352" width="208" height="16"/>
	</g>
</g>
<g>
	<g>
		<rect x="480" y="480" width="16" height="16"/>
	</g>
</g>
<g>
	<g>
		<rect y="480" width="16" height="16"/>
	</g>
</g>
<g>
</g>
<g>
</g>
<g>
</g>
<g>
</g>
<g>
</g>
<g>
</g>
<g>
</g>
<g>
</g>
<g>
</g>
<g>
</g>
<g>
</g>
<g>
</g>
<g>
</g>
<g>
</g>
<g>
</g>
</svg>
