<svg id="Layer_3" enable-background="new 0 0 64 64" height="512" viewBox="0 0 64 64" width="512" xmlns="http://www.w3.org/2000/svg"><g><path d="m23 52v-5c0-.379.214-.725.553-.895l2.211-1.105-2.211-1.105c-.339-.17-.553-.516-.553-.895v-3c0-.551-.449-1-1-1h-18c-.551 0-1 .449-1 1v12c0 .551.449 1 1 1h18c.551 0 1-.449 1-1zm-2-1h-16v-2h16zm-14-4v-2h12v2zm14-4h-16v-2h16z"/><path d="m21 14.08-8.375 6.7c-.183.147-.404.22-.625.22s-.442-.073-.625-.219l-8.375-6.701v10.92h18z"/><path d="m19.149 13h-14.298l7.149 5.719z"/><path d="m42 3h-20c-2.414 0-4.434 1.721-4.899 4h29.798c-.465-2.279-2.485-4-4.899-4z"/><path d="m25 52c0 1.654-1.346 3-3 3h-5v1c0 2.757 2.243 5 5 5h20c2.757 0 5-2.243 5-5v-5h-22zm7 1c1.654 0 3 1.346 3 3s-1.346 3-3 3-3-1.346-3-3 1.346-3 3-3z"/><circle cx="32" cy="56" r="1"/><circle cx="53" cy="29" r="3"/><path d="m58 20h-10c-1.654 0-3 1.346-3 3v10c0 1.654 1.346 3 3 3h10c1.654 0 3-1.346 3-3v-10c0-1.654-1.346-3-3-3zm-5 14c-2.757 0-5-2.243-5-5s2.243-5 5-5 5 2.243 5 5-2.243 5-5 5zm6-10h-2v-2h2z"/><path d="m43 33v-10c0-2.414 1.721-4.434 4-4.899v-9.101h-30v2h5c.552 0 1 .448 1 1v14c0 .552-.448 1-1 1h-5v10h5c1.654 0 3 1.346 3 3v2.382l3.447 1.724c.339.169.553.515.553.894s-.214.725-.553.895l-3.447 1.723v1.382h22v-11.101c-2.279-.465-4-2.485-4-4.899z"/></g></svg>